<svg viewBox="0 0 147 35" xmlns:xlink="http://www.w3.org/1999/xlink" xmlns="http://www.w3.org/2000/svg" width="441" height="105" fill="none"><g clip-path="url(#a)"><path d="m80.282 32.3-2.28-.016.05 2.127-56.566-.013.04-1.567-2.987 1.427h-8.182c-2.762 0-5.012-.842-6.687-2.496C.609 28.735.59 24.098.59 23.902v-12.53c0-4.276 1.317-7.362 3.917-9.17A9.714 9.714 0 0 1 9.883.582c.238 0 .399.01.464.015H22.65l3.083 1.728.47-1.73h15.743l.203.657-.007-.658h61.59l.033.995 1.566-.995h10.909l2.873 1.535-.039-1.535h27.335l-.016 10.559-1.002 1.018-.047 9.897 1.03 1.063-.017 11.125h-27.12v-1.783l-2.41 1.783h-9.417l-3.168-1.606v1.602l-23.936.161-.024-2.113Z" fill="#010101"/><path d="M9.884 1.162c.278 0 .44.015.44.015h12.17l3.613 2.028.55-2.028H41.51L42.788 5.3l-.048-4.122h60.421l.048 1.458 2.295-1.458h10.586l3.638 1.942-.049-1.942h26.139l-.014 9.741-1.001 1.018-.049 10.366 1.031 1.063-.017 10.312h-25.941v-2.366l-3.196 2.366h-9.078l-3.901-1.978v1.978l-22.763.153-.024-2.107L77.4 31.7l.05 2.131-55.358-.012.048-1.926-3.736 1.785h-8.046c-9.21 0-9.177-9.773-9.177-9.773V11.371c0-9.574 6.88-10.209 8.704-10.209Zm0-1.162C8.234 0 0 .548 0 11.371v12.533c0 .202.02 5.073 3.252 8.268 1.79 1.77 4.18 2.667 7.106 2.667h8.317l.244-.117 1.993-.952v.018l-.03 1.192h1.21l55.357.012h1.207l-.028-1.19-.02-.933 1.091.007.011.966.014 1.157 1.174-.007 22.763-.154 1.171-.008v-1.225l2.182 1.106.254.129h9.759l.315-.233 1.307-.968v1.202h28.299l.001-1.16.017-10.312v-.467l-.327-.337-.702-.724.044-9.43.671-.68.332-.338v-.47L147 1.182l.002-1.165h-28.533l.029 1.126-1.846-.985-.263-.14h-11.232l-.292.185-.545.346-.017-.532H25.752l-.234.862-.156.573L23.078.17l-.271-.153H10.369a7.21 7.21 0 0 0-.485-.014V0Z" fill="#C2BA98"/><path d="M34.08 29.76v-5.55l.508-.19a.496.496 0 0 0 .278-.19.483.483 0 0 0 .09-.32h-2.3a.458.458 0 0 0 .105.318.47.47 0 0 0 .295.165l.589.15v5.615h-9.93v-5.423l.34-.231c.404-.274.55-.984.689-1.67.04-.194.078-.382.122-.56l3.316-17.578h12.06l3.666 17.951c.277 1.472.602 1.716.729 1.754l.56.165v5.594H34.081Zm-.063-12.46-.322-1.832-.308 1.833h.63Z" fill="#FF671D"/><path d="m39.597 5.074 3.54 17.327c.141.753.425 2.093 1.274 2.344v4.241h-9.544v-4.242c.274-.09.51-.269.668-.506.16-.238.233-.521.21-.805a2.777 2.777 0 0 0-.113-.697H31.98a2.988 2.988 0 0 0-.113.697c-.023.3.064.597.246.838.183.241.447.41.745.473v4.242h-8.355v-4.242c.821-.557.906-1.785 1.133-2.706l3.2-16.964h10.762ZM32.46 18.076h2.492l-1.245-7.088h-.057l-1.19 7.088Zm8.425-14.552H27.527l-.238 1.265-3.194 16.926c-.045.191-.084.382-.122.568-.075.368-.213 1.053-.365 1.188l-.681.462.003.81v5.793h23.057V23.59l-.958-.283a4.1 4.1 0 0 1-.343-1.189l-.002-.012-.002-.012L41.14 4.768l-.254-1.244h-.002Z" fill="#fff"/><path d="M44.812 29.76v-5.445l.37-.228c.422-.26.46-.609.453-1.47V11.442c.006-.86-.03-1.21-.453-1.47l-.37-.227V4.3h10.779v5.445l-.37.228c-.422.26-.46.609-.453 1.469v11.691c.752-.01.862-.222.909-.314.152-.297.152-.88.152-1.496v-4.718h8.229v13.157H44.812Z" fill="#FF671D"/><path d="M54.803 5.074v4.24c-.907.559-.822 1.451-.822 2.345v12.248h.737c1.926 0 1.897-1.143 1.897-2.65v-3.878h6.656v11.607H45.599v-4.242c.906-.557.821-1.45.821-2.343V11.659c0-.894.085-1.786-.821-2.344V5.074h9.204Zm1.573-1.55H44.024v6.65l.74.455a.352.352 0 0 1 .037.026c.047.258.062.52.046.781V22.623c.016.262 0 .524-.046.781a.323.323 0 0 1-.037.026l-.74.455v6.651h20.82V15.83h-9.29v-4.394c-.016-.261 0-.523.046-.78a.338.338 0 0 1 .037-.026l.74-.455v-6.65Z" fill="#fff"/><path d="M81.852 29.76v-5.445l.37-.228c.422-.26.458-.609.453-1.469V11.441c.006-.86-.03-1.21-.453-1.47l-.37-.227V4.3h19.755v9.641h-4.9v5.621h4.9v10.2H81.852Zm10.07-6.63c1.117-.017 1.12-.192 1.143-1.923v-1.352h-1.144v3.275Zm1.144-9.484V12.44c0-1.205 0-1.473-1.144-1.509v2.715h1.144Z" fill="#FF671D"/><path d="M100.819 5.074v8.091h-6.966v-.725c0-1.619-.226-2.288-2.265-2.288h-.453v4.27h4.786v4.658h-4.786v4.827h.453c2.265 0 2.237-.836 2.265-2.79v-.78h6.966v8.65h-18.18v-4.243c.906-.557.82-1.45.82-2.343V11.659c0-.894.086-1.786-.82-2.344V5.074h18.18Zm1.574-1.55H81.065v6.65l.74.455a.338.338 0 0 1 .037.026c.046.258.062.52.046.781V22.625c.016.261 0 .524-.046.781a.458.458 0 0 1-.037.026l-.74.455v6.65h21.329V18.79h-4.899v-4.074h4.899V3.524h-.001Z" fill="#fff"/><path d="M111.416 30.242c-3.27 0-6.008-.802-7.512-2.2-2.265-2.078-2.262-4.747-2.257-7.327v-8.61c0-2.163.28-4.604 2.354-6.29 1.584-1.292 4.075-2.004 7.015-2.004a17.76 17.76 0 0 1 9.497 2.737l.352.23v7.831h-8.882v-2.197c0-.098.002-.202.004-.311.008-.487.022-1.222-.214-1.459a.77.77 0 0 0-.782 0c-.236.237-.222.973-.213 1.459l.003.311v9.236c0 .098 0 .202-.003.31-.009.488-.022 1.223.213 1.46a.774.774 0 0 0 .782 0c.236-.237.223-.972.214-1.46-.002-.108-.004-.212-.004-.31v-3.482h8.88v9.12l-.285.233c-1.975 1.606-5.203 2.622-8.636 2.716-.176.005-.351.007-.526.007Z" fill="#FF671D"/><path d="M111.013 4.586a16.9 16.9 0 0 1 9.064 2.608v6.64h-7.308v-1.422c0-.977.198-2.651-1.388-2.651-1.585 0-1.387 1.674-1.387 2.65v9.236c0 .977-.198 2.651 1.387 2.651 1.586 0 1.388-1.674 1.388-2.65v-2.706h7.308v7.98c-1.955 1.59-5.098 2.455-8.157 2.539-.169.005-.337.007-.504.007-2.849 0-5.555-.67-6.973-1.989-2.096-1.923-2.011-4.435-2.011-7.059v-8.315c0-2.149.284-4.241 2.069-5.692 1.51-1.232 3.91-1.827 6.512-1.827Zm0-1.55c-3.12 0-5.79.775-7.516 2.183-2.324 1.89-2.638 4.541-2.638 6.886v8.61c-.003 2.618-.007 5.586 2.512 7.898 1.641 1.526 4.575 2.404 8.045 2.404.183 0 .366-.002.549-.007 3.603-.1 7.01-1.181 9.115-2.894l.571-.465v-10.26h-10.082v-2.006h10.08V6.36l-.704-.46a18.583 18.583 0 0 0-9.932-2.865Z" fill="#fff"/><path d="M121.525 29.76v-5.445l.37-.228c.422-.26.458-.608.453-1.468V11.441c.006-.86-.031-1.21-.453-1.47l-.37-.227V4.3h21.227v5.445l-.37.228c-.421.26-.457.608-.452 1.466V22.622c-.006.858.031 1.207.452 1.466l.37.228v5.446h-21.227Zm9.956-7.359v.22c-.006.858.031 1.207.452 1.466l.207.127.206-.127c.422-.26.458-.608.453-1.467V19.66h-1.315l-.003 2.74Zm1.316-8.95V11.44c.006-.86-.031-1.208-.453-1.468l-.206-.127-.206.127c-.422.26-.458.608-.453 1.467v2.011h1.318Z" fill="#FF671D"/><path d="M141.966 5.074v4.24c-.906.559-.82 1.451-.82 2.345V22.4c0 .893-.086 1.786.82 2.344v4.241h-9.204v-4.242c.906-.557.821-1.45.821-2.343v-3.516h-2.888v3.516c0 .892-.086 1.785.821 2.343v4.242h-9.204v-4.242c.906-.557.821-1.45.821-2.343V11.659c0-.894.085-1.786-.821-2.344V5.074h9.204v4.24c-.907.559-.821 1.451-.821 2.345v2.567h2.888v-2.568c0-.893.085-1.785-.821-2.343V5.074h9.204Zm1.574-1.55h-22.801v6.65l.739.455a.374.374 0 0 1 .037.026 3.3 3.3 0 0 1 .046.78v11.191c.016.26 0 .522-.046.78a.464.464 0 0 1-.036.025l-.74.455v6.651h22.801v-6.652l-.741-.456a.52.52 0 0 1-.036-.024 3.268 3.268 0 0 1-.045-.778V11.433a3.27 3.27 0 0 1 .045-.778.357.357 0 0 1 .037-.026l.74-.455v-6.65ZM25.663 14.907H13.668v3.681h11.995v-3.681ZM65.78 16.65h-1.376v7.556h1.376V16.65ZM102.226 14.196h-5.113v5.167h5.113v-5.167Z" fill="#fff"/><path d="M122.744 14.842h-11.995v3.424h11.995v-3.423Z" fill="#fff"/><path d="M14.034 30.242c-3.27 0-6.008-.802-7.512-2.2-2.264-2.078-2.261-4.747-2.257-7.327v-8.61c0-2.163.28-4.603 2.353-6.29 1.586-1.292 4.076-2.004 7.014-2.004a17.759 17.759 0 0 1 9.498 2.737l.352.23v7.831h-8.88v-2.197c0-.098.002-.203.004-.312.008-.486.022-1.221-.214-1.458a.775.775 0 0 0-.783 0c-.236.237-.222.972-.213 1.458.002.11.004.214.004.312v9.236c0 .098-.002.202-.004.311-.01.487-.023 1.222.213 1.458a.773.773 0 0 0 .783 0c.236-.236.223-.971.214-1.458a16.517 16.517 0 0 1-.004-.311v-3.482h8.88v9.12l-.286.233c-1.974 1.606-5.202 2.622-8.636 2.716-.175.005-.35.007-.526.007Z" fill="#FF671D"/><path d="M13.631 4.586a16.893 16.893 0 0 1 9.063 2.608v6.64h-7.307v-1.422c0-.977.199-2.651-1.387-2.651s-1.388 1.674-1.388 2.65v9.236c0 .977-.198 2.651 1.388 2.651 1.586 0 1.387-1.674 1.387-2.65v-2.706h7.307v7.98c-1.954 1.59-5.097 2.455-8.156 2.539a16.97 16.97 0 0 1-.504.007c-2.85 0-5.555-.67-6.973-1.989-2.096-1.923-2.01-4.435-2.01-7.059v-8.315c0-2.149.283-4.241 2.067-5.692 1.511-1.232 3.91-1.827 6.513-1.827Zm0-1.55c-3.12 0-5.79.775-7.517 2.183-2.323 1.89-2.637 4.541-2.637 6.886v8.61c-.003 2.618-.007 5.586 2.512 7.898 1.641 1.526 4.574 2.404 8.045 2.404.183 0 .366-.002.549-.007 3.602-.1 7.01-1.181 9.114-2.894l.571-.465V17.39H14.185v-2.006h10.082V6.36l-.704-.46a18.58 18.58 0 0 0-9.932-2.865Z" fill="#fff"/><path d="M65.456 29.76v-5.445l.37-.228c.422-.26.458-.609.453-1.468V16.647h-6.685V4.297h22.503v12.35h-6.683V22.621c-.006.858.03 1.207.453 1.466l.37.227v5.447h-10.78Z" fill="#FF671D"/><path d="M81.31 5.074v10.798h-5.354v-4.018c0-1.088-.254-1.674-1.33-1.702v12.25c0 .892-.086 1.785.821 2.343v4.241h-9.204v-4.242c.906-.557.821-1.45.821-2.343V10.15c-1.076.029-1.331.614-1.331 1.703v4.018H60.38V5.074h20.93Zm1.573-1.55H58.807v13.898h6.684v5.203c.016.26 0 .522-.046.78a.354.354 0 0 1-.037.025l-.74.455v6.651H77.02v-6.652l-.74-.455a.33.33 0 0 1-.037-.025 3.303 3.303 0 0 1-.046-.777v-5.205h6.684V3.524h.002ZM25.188 18.136h-1.524v2.567h1.524v-2.567Z" fill="#fff"/></g><defs><clipPath id="a"><path fill="#fff" d="M0 0h147v35H0z"/></clipPath></defs></svg>